<svg width="144" height="144" viewBox="0 0 144 144" fill="none" xmlns="http://www.w3.org/2000/svg">
<g filter="url(#filter0_d_2036_242)">
<rect x="12" y="4" width="120" height="120" rx="16" fill="#F5FAFF"/>
</g>
<path d="M103.495 72.7767L90.9831 62.6851V48.5254C90.9831 47.7765 90.376 47.1695 89.6272 47.1695H81.0837V43.32C81.5085 43.3726 81.9343 43.3993 82.359 43.3993C85.0864 43.3993 87.7572 42.3274 89.7282 40.3564C92.3446 37.7402 93.3763 33.8918 92.4207 30.3131C92.2955 29.8442 91.9293 29.4781 91.4604 29.3528C87.8815 28.3973 84.0333 29.4288 81.417 32.0453C80.7482 32.714 80.1838 33.4636 79.7287 34.2682C79.2738 33.4636 78.7093 32.714 78.0406 32.0453C75.4243 29.4288 71.576 28.3973 67.9972 29.3528C67.5283 29.4779 67.1622 29.8442 67.0369 30.3131C66.0814 33.8918 67.1131 37.7402 69.7294 40.3564C71.7006 42.3278 74.371 43.3994 77.0987 43.3994C77.5225 43.3994 77.9476 43.3727 78.3717 43.3202V47.1695H69.8305C69.0817 47.1695 68.4746 47.7765 68.4746 48.5254V66.6949H63.3221V30.3559C63.3221 29.876 63.0684 29.4318 62.6551 29.188C62.2418 28.9444 61.7305 28.9369 61.3103 29.1692L40.7001 40.5602C40.2682 40.799 40 41.2535 40 41.747V61.9491C40 62.698 40.6071 63.3051 41.3559 63.3051C42.1048 63.3051 42.7119 62.698 42.7119 61.9491V42.5468L60.6102 32.6545V43.9152H53.2881C52.5393 43.9152 51.9322 44.5223 51.9322 45.2712C51.9322 46.02 52.5393 46.6271 53.2881 46.6271H60.6102V51.5085H53.2881C52.5393 51.5085 51.9322 52.1155 51.9322 52.8644C51.9322 53.6133 52.5393 54.2203 53.2881 54.2203H60.6102V59.1017H53.2881C52.5393 59.1017 51.9322 59.7087 51.9322 60.4576C51.9322 61.2065 52.5393 61.8136 53.2881 61.8136H60.6102V66.6949H51.841C51.0921 66.6949 50.485 67.302 50.485 68.0508V95.7119H42.7119V74.1525C42.7119 73.4037 42.1048 72.7966 41.3559 72.7966C40.6071 72.7966 40 73.4037 40 74.1525V97.0678C40 97.8167 40.6071 98.4237 41.3559 98.4237H102.644C103.393 98.4237 104 97.8167 104 97.0678V73.8321C104 73.4221 103.815 73.034 103.495 72.7767ZM83.3347 33.9628C85.0768 32.2206 87.5584 31.4287 89.9679 31.8055C90.3445 34.2152 89.5529 36.6967 87.8106 38.4388C86.0684 40.181 83.5866 40.9727 81.1774 40.596C80.8009 38.1864 81.5924 35.7049 83.3347 33.9628ZM78.2804 40.596C75.8707 40.9722 73.3892 40.1807 71.6471 38.4386C69.9048 36.6965 69.1132 34.215 69.4898 31.8054C71.8989 31.4287 74.381 32.2206 76.123 33.9627C77.8654 35.7051 78.657 38.1866 78.2804 40.596V40.596ZM101.288 74.4804V95.7119H90.9831V66.1691L101.288 74.4804ZM71.1865 49.8813H88.2712V95.7119H79.2308V68.0508C79.2308 67.302 78.6238 66.6949 77.8749 66.6949H71.1865V49.8813ZM53.1969 95.7119V69.4068H76.5189V95.7119H53.1969Z" fill="#00539E"/>
<path d="M72.4052 73.0679H57.31C56.5612 73.0679 55.9541 73.6749 55.9541 74.4238V79.8475C55.9541 80.5964 56.5612 81.2035 57.31 81.2035H72.4052C73.1541 81.2035 73.7612 80.5964 73.7612 79.8475V74.4238C73.7612 73.6749 73.1541 73.0679 72.4052 73.0679ZM71.0493 78.4916H58.666V75.7797H71.0493V78.4916Z" fill="#00539E"/>
<path d="M72.4052 83.9153H57.31C56.5612 83.9153 55.9541 84.5223 55.9541 85.2712V90.695C55.9541 91.4438 56.5612 92.0509 57.31 92.0509H72.4052C73.1541 92.0509 73.7612 91.4438 73.7612 90.695V85.2712C73.7612 84.5223 73.1541 83.9153 72.4052 83.9153ZM71.0493 89.339H58.666V86.6271H71.0493V89.339Z" fill="#00539E"/>
<path d="M41.3559 69.4067C41.7125 69.4067 42.0624 69.2616 42.3146 69.0094C42.5668 68.7572 42.7119 68.4074 42.7119 68.0508C42.7119 67.6941 42.5668 67.3443 42.3146 67.0921C42.0624 66.8399 41.7125 66.6948 41.3559 66.6948C40.9993 66.6948 40.6495 66.8399 40.3973 67.0921C40.1451 67.3443 40 67.6941 40 68.0508C40 68.4074 40.1451 68.7572 40.3973 69.0094C40.6495 69.2616 40.9993 69.4067 41.3559 69.4067Z" fill="#00539E"/>
<defs>
<filter id="filter0_d_2036_242" x="0" y="0" width="144" height="144" filterUnits="userSpaceOnUse" color-interpolation-filters="sRGB">
<feFlood flood-opacity="0" result="BackgroundImageFix"/>
<feColorMatrix in="SourceAlpha" type="matrix" values="0 0 0 0 0 0 0 0 0 0 0 0 0 0 0 0 0 0 127 0" result="hardAlpha"/>
<feMorphology radius="4" operator="erode" in="SourceAlpha" result="effect1_dropShadow_2036_242"/>
<feOffset dy="8"/>
<feGaussianBlur stdDeviation="8"/>
<feComposite in2="hardAlpha" operator="out"/>
<feColorMatrix type="matrix" values="0 0 0 0 0.0823529 0 0 0 0 0.0823529 0 0 0 0 0.0823529 0 0 0 0.1 0"/>
<feBlend mode="normal" in2="BackgroundImageFix" result="effect1_dropShadow_2036_242"/>
<feBlend mode="normal" in="SourceGraphic" in2="effect1_dropShadow_2036_242" result="shape"/>
</filter>
</defs>
</svg>
