<svg width="144" height="144" viewBox="0 0 144 144" fill="none" xmlns="http://www.w3.org/2000/svg">
<g filter="url(#filter0_d_2034_197)">
<rect x="12" y="4" width="120" height="120" rx="16" fill="#F5FAFF"/>
</g>
<path d="M102.938 80.2337C102.924 80.1703 102.797 79.5963 102.468 78.9651C101.972 78.0153 101.263 77.4045 100.416 77.1989C98.8018 76.8064 96.9865 77.8743 94.8675 80.464C92.0455 83.9133 89.5713 85.742 87.9928 86.6688C86.5239 87.5311 85.5403 87.7915 85.2989 87.8468L70.385 87.7769L68.6564 86.4808C68.913 86.2285 69.3769 85.9983 69.6823 85.902L82.4322 82.7142L82.463 82.706C82.9918 82.5548 87.6297 81.1376 87.6297 77.9503C87.6297 77.0899 87.3091 76.3633 86.7023 75.8492C85.3472 74.701 83.0119 75.0318 82.6914 75.0839C80.2744 75.4282 59.5035 78.3964 57.6547 78.9443C55.5299 79.574 54.1149 80.9719 54.0557 81.031L51.8628 83.5866V78.8342H41V105.026H51.8628V101.966L58.2579 96.7333C59.56 96.7712 64.2067 96.8906 69.5935 96.8381C78.1341 96.7554 84.3766 96.3036 88.1478 95.4959C92.0391 94.6619 95.8272 91.8419 99.1025 87.3413C101.536 83.9977 102.83 80.9329 102.884 80.8041L103 80.5274L102.938 80.2337ZM49.9411 103.104H42.9218V80.7559H49.9412L49.9411 103.104ZM87.7449 93.6169C79.022 95.4853 58.1696 94.8085 57.96 94.8016L57.5989 94.7894L51.8628 99.4826V86.537L55.4345 82.3708C55.6007 82.2144 56.6849 81.2359 58.2007 80.7866C59.499 80.4019 73.7263 78.3022 82.9724 76.9847L82.9925 76.9816C83.5617 76.8896 84.9138 76.8504 85.4613 77.3163C85.5761 77.4141 85.708 77.5744 85.708 77.95C85.708 79.4286 82.9389 80.5654 81.9487 80.854L69.1917 84.0437L69.1519 84.0545C69.0899 84.0729 68.5293 84.2443 67.9547 84.606C66.7915 85.3381 66.5473 86.2144 66.5473 86.8206V87.3012L69.7406 89.6954L85.4652 89.769L85.5423 89.7566C85.7396 89.7253 90.443 88.9064 96.3549 81.6805C97.8446 79.8601 99.1921 78.8821 99.9592 79.065C100.481 79.1894 100.825 79.9017 100.979 80.3586C100.138 82.1994 95.333 91.9905 87.7449 93.6169Z" fill="#00539E"/>
<path d="M47.3929 82.9895H45.4712V85.5441H47.3929V82.9895Z" fill="#00539E"/>
<path d="M87.3831 56.7448C91.0511 52.9245 93.023 47.9017 92.9357 42.6018C92.7555 31.6667 83.7104 22.8768 72.7642 23.0013C61.8501 23.1283 53.063 32.0027 53.063 42.9376C53.063 48.1 55.029 52.9964 58.5991 56.725C60.4505 58.6587 61.6748 61.1387 62.0484 64.127C60.1161 65.1131 59.7139 67.6981 61.2681 69.2192C59.3463 71.1 60.4984 74.3909 63.1876 74.6423C64.0852 78.3803 67.427 81.0005 71.2525 81.0005H74.7487C78.5778 81.0005 81.9168 78.377 82.8138 74.6423C85.5014 74.3911 86.6564 71.1013 84.7332 69.2192C86.2901 67.6955 85.8826 65.1118 83.953 64.127C84.3234 61.1666 85.5206 58.6848 87.3831 56.7448ZM59.9082 55.4714C56.6628 52.0819 54.8755 47.6306 54.8755 42.9376C54.8755 33.059 62.9097 24.9286 72.7852 24.8137C82.7287 24.7009 90.9596 32.691 91.1233 42.6317C91.2027 47.4502 89.4101 52.0167 86.0756 55.4896C83.9956 57.656 82.5752 60.5273 82.1695 63.7815H73.9069V53.8126H76.6257C82.1225 53.8126 86.5946 49.3406 86.5946 43.8438V41.125C86.5946 40.6245 86.1888 40.2188 85.6883 40.2188H82.0633C78.0468 40.2188 74.578 42.6065 73.0007 46.0369C71.4233 42.6066 67.9545 40.2189 63.9381 40.2189H60.3131C59.8126 40.2189 59.4068 40.6246 59.4068 41.1251V43.8439C59.4068 49.3407 63.8788 53.8128 69.3756 53.8128H72.0944V63.7816H63.8318C63.4205 60.4971 61.9766 57.6317 59.9082 55.4714ZM80.9328 45.9659C80.6032 45.5891 80.0304 45.5512 79.6541 45.8807L73.9069 50.9093V50.1877C73.9069 45.6903 77.5658 42.0314 82.0633 42.0314H84.782V43.8439C84.782 48.3413 81.1231 52.0002 76.6257 52.0002H75.4126L80.8475 47.2448C81.2242 46.9151 81.2624 46.3426 80.9328 45.9659V45.9659ZM72.0944 50.9093L66.3474 45.8806C65.9706 45.5508 65.3982 45.5891 65.0685 45.9658C64.7389 46.3425 64.7771 46.915 65.1537 47.2446L70.5887 52.0002H69.3756C64.8782 52.0002 61.2193 48.3413 61.2193 43.8439V42.0314H63.9381C68.4355 42.0314 72.0944 45.6903 72.0944 50.1877V50.9093ZM74.7489 79.188H71.2526C68.4064 79.188 65.9122 77.3012 65.0717 74.6567H80.9297C80.0892 77.3011 77.5951 79.188 74.7489 79.188ZM83.8758 71.4848C83.8758 72.2344 83.266 72.8442 82.5164 72.8442C81.4119 72.8442 64.2174 72.8442 63.485 72.8442C62.7354 72.8442 62.1256 72.2344 62.1256 71.4848C62.1256 70.7352 62.7354 70.1254 63.485 70.1254H82.5164C83.266 70.1254 83.8758 70.7352 83.8758 71.4848ZM63.485 68.3129C62.7354 68.3129 62.1256 67.7031 62.1256 66.9535C62.1256 66.2039 62.7354 65.5941 63.485 65.5941H82.5164C83.266 65.5941 83.8758 66.2039 83.8758 66.9535C83.8758 67.7031 83.266 68.3129 82.5164 68.3129H63.485Z" fill="#00539E"/>
<path d="M50.3438 42.9375C50.3438 42.437 49.938 42.0312 49.4376 42.0312H44.9063C44.4058 42.0312 44 42.437 44 42.9375C44 43.438 44.4058 43.8438 44.9063 43.8438H49.4376C49.938 43.8438 50.3438 43.438 50.3438 42.9375Z" fill="#00539E"/>
<path d="M52.1411 53.934L48.2169 56.1996C47.7835 56.4498 47.635 57.0041 47.8852 57.4376C48.1359 57.8716 48.6902 58.0191 49.1232 57.7692L53.0474 55.5036C53.4808 55.2534 53.6293 54.6991 53.3791 54.2656C53.1287 53.8322 52.5746 53.6839 52.1411 53.934V53.934Z" fill="#00539E"/>
<path d="M48.217 29.6754C52.4176 32.1006 52.2501 32.0626 52.5935 32.0626C53.5193 32.0626 53.847 30.833 53.0475 30.3713L49.1233 28.1057C48.6897 27.8554 48.1357 28.004 47.8853 28.4374C47.635 28.8709 47.7835 29.4252 48.217 29.6754Z" fill="#00539E"/>
<path d="M101.094 42.0312H96.563C96.0625 42.0312 95.6567 42.437 95.6567 42.9375C95.6567 43.438 96.0625 43.8438 96.563 43.8438H101.094C101.595 43.8438 102.001 43.438 102.001 42.9375C102.001 42.437 101.595 42.0312 101.094 42.0312Z" fill="#00539E"/>
<path d="M97.7834 56.1998L93.8591 53.9341C93.4257 53.6838 92.8714 53.8323 92.621 54.2658C92.3708 54.6992 92.5194 55.2535 92.9528 55.5038L96.8772 57.7694C97.3087 58.0186 97.8637 57.8731 98.1152 57.4377C98.3655 57.0043 98.217 56.45 97.7834 56.1998Z" fill="#00539E"/>
<path d="M93.4072 32.0627C93.7524 32.0627 93.5885 32.0975 97.7838 29.6755C98.2172 29.4252 98.3658 28.8709 98.1156 28.4375C97.8654 28.0042 97.3112 27.8552 96.8775 28.1058L92.9532 30.3715C92.1522 30.8339 92.4829 32.0627 93.4072 32.0627Z" fill="#00539E"/>
<defs>
<filter id="filter0_d_2034_197" x="0" y="0" width="144" height="144" filterUnits="userSpaceOnUse" color-interpolation-filters="sRGB">
<feFlood flood-opacity="0" result="BackgroundImageFix"/>
<feColorMatrix in="SourceAlpha" type="matrix" values="0 0 0 0 0 0 0 0 0 0 0 0 0 0 0 0 0 0 127 0" result="hardAlpha"/>
<feMorphology radius="4" operator="erode" in="SourceAlpha" result="effect1_dropShadow_2034_197"/>
<feOffset dy="8"/>
<feGaussianBlur stdDeviation="8"/>
<feComposite in2="hardAlpha" operator="out"/>
<feColorMatrix type="matrix" values="0 0 0 0 0.0823529 0 0 0 0 0.0823529 0 0 0 0 0.0823529 0 0 0 0.1 0"/>
<feBlend mode="normal" in2="BackgroundImageFix" result="effect1_dropShadow_2034_197"/>
<feBlend mode="normal" in="SourceGraphic" in2="effect1_dropShadow_2034_197" result="shape"/>
</filter>
</defs>
</svg>
