<svg width="144" height="144" viewBox="0 0 144 144" fill="none" xmlns="http://www.w3.org/2000/svg">
<g filter="url(#filter0_d_2035_224)">
<rect x="12" y="4" width="120" height="120" rx="16" fill="#F5FAFF"/>
</g>
<path d="M34.3975 56.8297C32.7214 57.1016 31.4249 58.4454 31.2132 60.1302C30.9318 62.6821 30.9289 65.257 31.205 67.8095C31.3974 69.5204 32.7019 70.8958 34.4002 71.1783L38.7489 71.8903C39.5838 75.4463 40.9931 78.8424 42.9213 81.9448L40.3616 85.52C39.3416 86.9029 39.3663 88.7955 40.4218 90.1516C41.2364 91.1482 42.1033 92.1013 43.0184 93.0066C43.8576 93.8471 44.7854 94.6917 45.8993 95.6278C47.2446 96.6623 49.1113 96.6839 50.4803 95.6811L54.0732 93.1036C57.1724 95.0314 60.5652 96.4412 64.1181 97.2773L64.8316 101.633C65.1028 103.309 66.4468 104.607 68.1321 104.819C68.9111 104.906 69.7024 104.967 70.4991 105H70.6152C71.3275 105 72.0125 104.726 72.5285 104.235C73.0651 103.722 73.3679 103.012 73.3662 102.27V91.3173C73.3581 89.8538 72.203 88.6541 70.7409 88.5908C57.6601 87.9079 47.4042 77.1025 47.4042 64.004C47.4042 50.9055 57.6601 40.1001 70.7409 39.4172C72.2053 39.353 73.3611 38.1498 73.3662 36.6839V25.737C73.3684 24.994 73.065 24.283 72.527 23.7705C71.9901 23.2436 71.2571 22.9655 70.5057 23.0037C69.7104 23.0352 68.9218 23.0925 68.1127 23.1745C66.4283 23.3916 65.0909 24.6968 64.8327 26.3752L64.1207 30.7266C60.5678 31.5633 57.175 32.9735 54.0758 34.9017L50.4829 32.3297C49.1012 31.3193 47.2164 31.3494 45.8677 32.4035C44.8769 33.2146 43.9286 34.0762 43.0265 34.9851C42.0968 35.8939 41.2216 36.8568 40.4053 37.8687C39.3625 39.2158 39.3358 41.0899 40.3397 42.4662L42.9159 46.0633C40.9894 49.1653 39.5819 52.5611 38.7489 56.1164L34.3975 56.8297ZM41.2213 57.5923C42.0158 53.7323 43.5401 50.0595 45.7122 46.7712C46.0234 46.2983 46.0109 45.6825 45.6807 45.2227L42.5635 40.87C42.2753 40.4897 42.2669 39.9664 42.5429 39.5771C43.292 38.6487 44.0957 37.7657 44.9496 36.9325C45.7791 36.0947 46.6503 35.2991 47.5599 34.5491C47.9514 34.2506 48.4941 34.2506 48.8856 34.5491L53.2316 37.6678C53.6919 37.9972 54.3077 38.0085 54.78 37.6966C58.0656 35.5237 61.7363 33.9989 65.5944 33.2043C66.1491 33.0901 66.5758 32.6454 66.6673 32.0864L67.5268 26.8234C67.5886 26.3513 67.9512 25.9749 68.4207 25.8954C69.1436 25.8203 69.8762 25.767 70.6333 25.7369L70.6032 36.6851C56.0533 37.4282 44.6396 49.4463 44.6477 64.0153C44.6556 78.5844 56.0825 90.5899 70.6333 91.317L70.6142 102.269C69.8802 102.239 69.1533 102.182 68.4358 102.101C67.9641 102.032 67.5944 101.66 67.5283 101.188L66.6673 95.9226C66.5758 95.3636 66.1492 94.919 65.5944 94.8046C61.7363 94.0094 58.0656 92.4843 54.78 90.311C54.3074 89.9994 53.6918 90.0114 53.2316 90.3411L48.8815 93.4626C48.5105 93.7511 47.9951 93.7649 47.6091 93.4967C46.6047 92.6508 45.734 91.8568 44.9496 91.0736C44.1116 90.2456 43.3166 89.3754 42.5675 88.466C42.2727 88.0723 42.2727 87.5315 42.5675 87.1376L45.6821 82.7889C46.0118 82.3289 46.0238 81.7131 45.7122 81.2405C43.54 77.9528 42.0157 74.2803 41.2213 70.4207C41.1072 69.8665 40.6631 69.4399 40.1047 69.3478L34.843 68.4855C34.3533 68.4045 33.9773 68.0073 33.9233 67.5138C33.6674 65.1631 33.6701 62.7914 33.9315 60.4414C33.9995 59.9693 34.3708 59.5985 34.843 59.5312L40.1032 58.6702C40.6638 58.5784 41.1089 58.1492 41.2213 57.5923V57.5923Z" fill="#00539E"/>
<path d="M108.899 59.903C107.168 59.9102 105.628 61.0041 105.051 62.6363H73.3661V58.5363H95.2326C97.4969 58.5363 99.3325 56.7007 99.3325 54.4364V47.3517C101.215 46.6862 102.344 44.761 102.007 42.793C101.669 40.8249 99.9626 39.3863 97.9658 39.3863C95.969 39.3863 94.2625 40.8249 93.9248 42.793C93.5871 44.761 94.7164 46.6862 96.5991 47.3517V54.4364C96.5991 55.1911 95.9872 55.8031 95.2323 55.8031H73.3661V51.7031H88.3993C89.154 51.7031 89.7659 51.0912 89.7659 50.3364C89.7659 49.5815 89.154 48.9696 88.3993 48.9696H73.3661V46.2363H81.5661C83.8304 46.2363 85.6661 44.4008 85.6661 42.1363V33.6852C87.5487 33.0196 88.678 31.0945 88.3403 29.1264C88.0026 27.1584 86.2962 25.7197 84.2994 25.7197C82.3026 25.7197 80.5961 27.1584 80.2584 29.1264C79.9207 31.0945 81.05 33.0196 82.9326 33.6852V42.1366C82.9326 42.8913 82.3208 43.5033 81.5659 43.5033H73.0052C72.535 42.6294 71.5967 42.1119 70.6068 42.1804C59.09 42.9099 50.1226 52.4633 50.1226 64.0032C50.1226 75.543 59.09 85.0964 70.6068 85.8259H70.7667C71.7003 85.8338 72.5618 85.3246 73.0052 84.5031H81.5659C82.3207 84.5031 82.9326 85.1149 82.9326 85.8698V94.3212C81.05 94.9867 79.9207 96.9119 80.2584 98.8799C80.5961 100.848 82.3026 102.287 84.2994 102.287C86.2962 102.287 88.0026 100.848 88.3403 98.8799C88.678 96.9119 87.5487 94.9867 85.6661 94.3212V85.8698C85.6661 83.6054 83.8305 81.7697 81.5661 81.7697H73.3661V79.0364H88.3993C89.154 79.0364 89.7659 78.4246 89.7659 77.6699C89.7659 76.9151 89.154 76.3031 88.3993 76.3031H73.3661V72.2032H95.2326C95.9873 72.2032 96.5993 72.8151 96.5993 73.5698V80.6545C94.7167 81.3201 93.5874 83.2452 93.9251 85.2133C94.2628 87.1813 95.9693 88.6199 97.966 88.6199C99.9628 88.6199 101.669 87.1813 102.007 85.2133C102.345 83.2452 101.215 81.3201 99.3328 80.6545V73.5698C99.3328 71.3055 97.4972 69.4699 95.2329 69.4699H73.3661V65.3696H105.051C105.749 67.3303 107.807 68.4545 109.835 67.9826C111.862 67.5106 113.212 65.5928 112.972 63.5253C112.733 61.4581 110.98 59.8994 108.899 59.903V59.903ZM97.9659 42.1366C98.7206 42.1366 99.3325 42.7484 99.3325 43.5033C99.3325 44.2582 98.7206 44.87 97.9659 44.87C97.2112 44.87 96.5993 44.2582 96.5993 43.5033C96.5993 42.7484 97.211 42.1366 97.9659 42.1366ZM84.2994 28.47C85.0541 28.47 85.6661 29.0819 85.6661 29.8368C85.6661 30.5916 85.0542 31.2033 84.2994 31.2033C83.5445 31.2033 82.9328 30.5915 82.9328 29.8368C82.9328 29.082 83.5445 28.47 84.2994 28.47ZM84.2994 99.536C83.5446 99.536 82.9328 98.9242 82.9328 98.1693C82.9328 97.4145 83.5446 96.8026 84.2994 96.8026C85.0541 96.8026 85.6661 97.4145 85.6661 98.1693C85.6661 98.9242 85.0541 99.536 84.2994 99.536ZM97.9659 85.8695C97.2112 85.8695 96.5993 85.2576 96.5993 84.5028C96.5993 83.7479 97.2112 83.1362 97.9659 83.1362C98.7206 83.1362 99.3325 83.748 99.3325 84.5028C99.3325 85.2575 98.7206 85.8695 97.9659 85.8695ZM52.8663 64.003C52.8777 53.9709 60.6272 45.647 70.6328 44.9191V83.0871C60.6272 82.3591 52.8777 74.035 52.8663 64.003V64.003ZM108.899 65.3696C108.144 65.3696 107.532 64.7578 107.532 64.0029C107.532 63.248 108.144 62.6363 108.899 62.6363C109.654 62.6363 110.266 63.2482 110.266 64.0029C110.266 64.7576 109.654 65.3696 108.899 65.3696Z" fill="#00539E"/>
<defs>
<filter id="filter0_d_2035_224" x="0" y="0" width="144" height="144" filterUnits="userSpaceOnUse" color-interpolation-filters="sRGB">
<feFlood flood-opacity="0" result="BackgroundImageFix"/>
<feColorMatrix in="SourceAlpha" type="matrix" values="0 0 0 0 0 0 0 0 0 0 0 0 0 0 0 0 0 0 127 0" result="hardAlpha"/>
<feMorphology radius="4" operator="erode" in="SourceAlpha" result="effect1_dropShadow_2035_224"/>
<feOffset dy="8"/>
<feGaussianBlur stdDeviation="8"/>
<feComposite in2="hardAlpha" operator="out"/>
<feColorMatrix type="matrix" values="0 0 0 0 0.0823529 0 0 0 0 0.0823529 0 0 0 0 0.0823529 0 0 0 0.1 0"/>
<feBlend mode="normal" in2="BackgroundImageFix" result="effect1_dropShadow_2035_224"/>
<feBlend mode="normal" in="SourceGraphic" in2="effect1_dropShadow_2035_224" result="shape"/>
</filter>
</defs>
</svg>
