<svg width="144" height="144" viewBox="0 0 144 144" fill="none" xmlns="http://www.w3.org/2000/svg">
<g filter="url(#filter0_d_2023_234)">
<rect x="12" y="4" width="120" height="120" rx="16" fill="#F5FAFF"/>
</g>
<path d="M71.9829 60.364C69.9849 60.364 68.3594 61.9896 68.3594 63.9877C68.3594 65.9858 69.9848 67.6112 71.9829 67.6112C73.981 67.6112 75.6064 65.9858 75.6064 63.9877C75.6064 61.9896 73.9809 60.364 71.9829 60.364ZM71.9829 65.3855C71.2122 65.3855 70.585 64.7584 70.585 63.9877C70.585 63.2168 71.2122 62.5897 71.9829 62.5897C72.7536 62.5897 73.3807 63.2168 73.3807 63.9877C73.3807 64.7584 72.7536 65.3855 71.9829 65.3855Z" fill="#00539E"/>
<path d="M102.953 90.5998H99.0809C106.102 83.4541 109.966 74.0185 109.966 63.9879C109.966 45.2619 96.4825 29.791 78.724 26.6049C71.2521 25.2647 63.6426 26.1611 56.7175 29.198C56.1547 29.4448 55.8983 30.1011 56.1453 30.664C56.3922 31.2268 57.0484 31.4829 57.6114 31.2362C71.2043 25.2757 86.7702 28.2067 97.2671 38.7035C111.126 52.5621 111.206 75.0579 97.5129 89.0196V85.16C97.5129 84.5453 97.0148 84.0471 96.4001 84.0471C95.7854 84.0471 95.2872 84.5453 95.2872 85.16V91.7126C95.2872 92.3273 95.7854 92.8254 96.4001 92.8254H102.953C103.568 92.8254 104.066 92.3273 104.066 91.7126C104.066 91.0979 103.568 90.5998 102.953 90.5998Z" fill="#00539E"/>
<path d="M88.1938 97.1298C87.9407 96.5701 87.2818 96.3213 86.7213 96.5744C73.2547 102.662 57.1677 99.7413 46.6987 89.272C32.7568 75.3303 32.7568 52.6452 46.6985 38.7035C46.7079 38.6941 46.7177 38.6848 46.727 38.6754V42.5412C46.727 43.1557 47.2252 43.654 47.8399 43.654C48.4545 43.654 48.9527 43.1557 48.9527 42.5412V35.9886C48.9527 35.374 48.4545 34.8757 47.8399 34.8757H41.2871C40.6724 34.8757 40.1743 35.374 40.1743 35.9886C40.1743 36.6031 40.6724 37.1014 41.2871 37.1014H45.1536C45.1441 37.1109 45.1341 37.1203 45.1248 37.1298C37.951 44.3037 34 53.8422 34 63.9876C34 91.7539 62.6998 109.877 87.6383 98.6023C88.1982 98.3492 88.4469 97.6899 88.1938 97.1298Z" fill="#00539E"/>
<path d="M97.0648 59.0314H92.9199C92.391 56.782 91.5097 54.6556 90.2916 52.6884L93.223 49.757C94.1422 48.8378 94.1424 47.3501 93.2231 46.4307L89.5401 42.7475C88.6229 41.8305 87.1308 41.8305 86.2135 42.7475L83.2821 45.679C81.315 44.4609 79.1885 43.5799 76.9391 43.0508V38.9059C76.9388 37.609 75.8837 36.554 74.5868 36.554H69.3783C68.0814 36.554 67.0261 37.609 67.0261 38.9059V43.0508C64.7767 43.5799 62.6502 44.4609 60.6831 45.679L57.7518 42.7475C56.8346 41.8305 55.3425 41.8305 54.4251 42.7475L50.7421 46.4307C49.823 47.3498 49.823 48.8376 50.7421 49.757L53.6736 52.6885C52.4555 54.6556 51.5745 56.782 51.0453 59.0316H46.901C45.6041 59.0316 44.5488 60.0866 44.5488 61.3837V66.5922C44.5488 67.889 45.6039 68.9442 46.901 68.9442H51.0458C51.5748 71.1936 52.4559 73.32 53.674 75.2872L50.7425 78.2187C49.8255 79.1358 49.8255 80.628 50.7425 81.5452L54.4256 85.2279C55.3447 86.1474 56.8326 86.1475 57.7522 85.2281L60.6835 82.2966C62.6506 83.5147 64.7771 84.3957 67.0266 84.9248V89.0697C67.0266 90.3666 68.0817 91.4218 69.3787 91.4218H74.5872C75.8841 91.4218 76.9394 90.3667 76.9394 89.0697V84.9248C79.1888 84.396 81.3153 83.5148 83.2824 82.2966L86.2138 85.2279C87.1329 86.1474 88.6208 86.1475 89.5404 85.2281L93.2234 81.5451C94.1403 80.628 94.1403 79.1359 93.2233 78.2184L90.2919 75.2871C91.51 73.3198 92.391 71.1935 92.9202 68.9441H97.065C98.3619 68.9441 99.4171 67.889 99.4171 66.5921V61.3835C99.417 60.0866 98.3619 59.0314 97.0648 59.0314ZM97.191 66.5922C97.191 66.662 97.1341 66.7187 97.0644 66.7187H92.0188C91.4845 66.7187 91.0258 67.0984 90.9257 67.623C90.4323 70.2104 89.4302 72.6292 87.9471 74.8121C87.6471 75.254 87.703 75.8467 88.0808 76.2245L91.6489 79.7925C91.6982 79.8419 91.6984 79.9222 91.6489 79.9713L87.9658 83.6542C87.9165 83.7035 87.8362 83.7036 87.787 83.6541L84.2189 80.0859C83.8411 79.7084 83.2487 79.6522 82.8065 79.9523C80.6237 81.4354 78.205 82.4375 75.6174 82.9309C75.0927 83.0311 74.7131 83.4897 74.7131 84.024V89.0695C74.7131 89.1393 74.6563 89.1961 74.5865 89.1961H69.378C69.3082 89.1961 69.2514 89.1393 69.2514 89.0695V84.024C69.2514 83.4897 68.8717 83.0311 68.3471 82.9309C65.7595 82.4375 63.3407 81.4354 61.1579 79.9523C60.716 79.6522 60.1232 79.7084 59.7456 80.0859L56.1779 83.6542C56.1286 83.7035 56.0483 83.7036 55.9991 83.6541L52.3161 79.971C52.2667 79.9218 52.2667 79.8416 52.3161 79.7925L55.8844 76.2242C56.262 75.8464 56.3181 75.2537 56.018 74.8118C54.5348 72.6289 53.5327 70.2101 53.0393 67.6227C52.9393 67.0981 52.4804 66.7184 51.9462 66.7184H46.901C46.8312 66.7184 46.7744 66.6617 46.7744 66.5919V61.3834C46.7744 61.3136 46.8312 61.2568 46.901 61.2568H51.9465C52.4807 61.2568 52.9394 60.8771 53.0396 60.3525C53.533 57.7651 54.5351 55.3463 56.0183 53.1635C56.3183 52.7216 56.2623 52.1289 55.8847 51.7513L52.3163 48.183C52.2918 48.1584 52.2793 48.1284 52.2793 48.0936C52.2793 48.0589 52.2918 48.0288 52.3164 48.0041L55.9994 44.3209C56.0487 44.2717 56.129 44.2717 56.1782 44.3209L59.7463 47.8892C60.1242 48.267 60.7171 48.3231 61.1587 48.0228C63.3415 46.5398 65.7601 45.5377 68.3478 45.0441C68.8724 44.9441 69.2521 44.4853 69.2521 43.951V38.9059C69.2521 38.8362 69.3089 38.7795 69.3787 38.7795H74.5872C74.657 38.7795 74.7138 38.8362 74.7138 38.9059V43.9513C74.7138 44.4854 75.0936 44.9444 75.6181 45.0444C78.2055 45.5381 80.6242 46.5402 82.807 48.0231C83.2487 48.3233 83.8416 48.2673 84.2193 47.8895L87.7875 44.3212C87.8368 44.272 87.9171 44.272 87.9662 44.3212L91.6492 48.0044C91.6739 48.0291 91.6863 48.0592 91.6863 48.0939C91.6863 48.1287 91.6739 48.1588 91.6492 48.1834L88.0809 51.7517C87.7033 52.1294 87.6472 52.7222 87.9473 53.164C89.4305 55.3467 90.4326 57.7655 90.926 60.3529C91.0262 60.8777 91.4849 61.2572 92.0191 61.2572H97.0647C97.1344 61.2572 97.1913 61.3141 97.1913 61.3838V66.5922H97.191Z" fill="#00539E"/>
<path d="M74.7906 49.5353C74.1869 49.4187 73.6035 49.8134 73.4868 50.4168C73.3703 51.0202 73.7649 51.604 74.3683 51.7205C80.2263 52.8525 84.4783 58.0114 84.4783 63.9877C84.4783 70.8778 78.8729 76.4834 71.9829 76.4834C65.0928 76.4834 59.4874 70.878 59.4874 63.9877C59.4874 58.0116 63.7392 52.8525 69.5975 51.7205C70.2009 51.6038 70.5956 51.0202 70.4789 50.4168C70.3622 49.8135 69.7793 49.4187 69.1752 49.5353C62.2722 50.8692 57.2617 56.9473 57.2617 63.9877C57.2617 72.105 63.8656 78.7089 71.9829 78.7089C80.1002 78.7089 86.704 72.105 86.704 63.9877C86.704 56.9473 81.6935 50.869 74.7906 49.5353Z" fill="#00539E"/>
<path d="M79.6458 62.5035C80.2605 62.5035 80.7586 62.0053 80.7586 61.3906V60.377C80.7586 59.4789 80.2755 58.6422 79.4978 58.1929L73.2441 54.5823C72.4662 54.1334 71.5 54.1334 70.722 54.5823L64.4685 58.1929C63.6907 58.642 63.2075 59.4788 63.2075 60.377V67.5982C63.2075 68.4963 63.6908 69.3331 64.4685 69.7823L70.7222 73.393C71.1111 73.6174 71.5472 73.7297 71.983 73.7297C72.419 73.7297 72.8551 73.6173 73.244 73.3929L79.4978 69.7823C80.2755 69.3331 80.7585 68.4963 80.7585 67.5982V66.5837C80.7585 65.9691 80.2603 65.4709 79.6456 65.4709C79.031 65.4709 78.5328 65.9691 78.5328 66.5837V67.5982C78.5328 67.7037 78.4759 67.802 78.3847 67.8546L72.131 71.4652C72.0397 71.5179 71.9258 71.5179 71.8346 71.4652L65.581 67.8546C65.4896 67.802 65.4327 67.7034 65.4327 67.5982V60.3768C65.4327 60.2713 65.4896 60.173 65.581 60.1203L71.8344 56.5099C71.926 56.4569 72.0397 56.457 72.131 56.5097L78.3845 60.1203C78.4759 60.173 78.5328 60.2716 78.5328 60.3768V61.3905C78.5329 62.0055 79.0311 62.5035 79.6458 62.5035Z" fill="#00539E"/>
<defs>
<filter id="filter0_d_2023_234" x="0" y="0" width="144" height="144" filterUnits="userSpaceOnUse" color-interpolation-filters="sRGB">
<feFlood flood-opacity="0" result="BackgroundImageFix"/>
<feColorMatrix in="SourceAlpha" type="matrix" values="0 0 0 0 0 0 0 0 0 0 0 0 0 0 0 0 0 0 127 0" result="hardAlpha"/>
<feMorphology radius="4" operator="erode" in="SourceAlpha" result="effect1_dropShadow_2023_234"/>
<feOffset dy="8"/>
<feGaussianBlur stdDeviation="8"/>
<feComposite in2="hardAlpha" operator="out"/>
<feColorMatrix type="matrix" values="0 0 0 0 0.0823529 0 0 0 0 0.0823529 0 0 0 0 0.0823529 0 0 0 0.1 0"/>
<feBlend mode="normal" in2="BackgroundImageFix" result="effect1_dropShadow_2023_234"/>
<feBlend mode="normal" in="SourceGraphic" in2="effect1_dropShadow_2023_234" result="shape"/>
</filter>
</defs>
</svg>
