<svg width="144" height="144" viewBox="0 0 144 144" fill="none" xmlns="http://www.w3.org/2000/svg">
<g filter="url(#filter0_d_2023_280)">
<rect x="12" y="4" width="120" height="120" rx="16" fill="#F5FAFF"/>
</g>
<path d="M93.4603 37.2696C93.8953 36.6521 93.7472 35.7993 93.1298 35.3645C87.2171 31.2008 80.2563 29 73.0001 29C68.4578 29 64.0378 29.8578 59.8628 31.5494C59.1631 31.8329 58.8257 32.6302 59.1092 33.3299C59.3926 34.0296 60.1894 34.3672 60.8897 34.0836C64.737 32.5247 68.8113 31.7344 73.0001 31.7344C79.6898 31.7344 86.106 33.7627 91.5554 37.6002C91.7948 37.7686 92.0695 37.8497 92.3414 37.8497C92.7711 37.8497 93.1942 37.6476 93.4603 37.2696Z" fill="#00539E"/>
<path d="M108 63.9999C108 57.0047 105.943 50.2524 102.051 44.473C101.629 43.8466 100.779 43.681 100.153 44.1027C99.5268 44.5244 99.361 45.374 99.7828 46.0003C103.37 51.3269 105.266 57.551 105.266 63.9999C105.266 70.8576 103.162 77.3588 99.1722 82.8727C98.5184 82.5755 97.7935 82.4085 97.0298 82.4085C94.1651 82.4085 91.8345 84.7392 91.8345 87.6038C91.8345 90.4685 94.1651 92.7992 97.0298 92.7992C99.8945 92.7992 102.225 90.4685 102.225 87.6038C102.225 86.495 101.875 85.4671 101.281 84.6225C105.679 78.6084 108 71.5004 108 63.9999ZM97.0298 90.0648C95.6729 90.0648 94.5688 88.9608 94.5688 87.6038C94.5688 86.2469 95.6729 85.1429 97.0298 85.1429C98.3867 85.1429 99.4907 86.2469 99.4907 87.6038C99.4907 88.9608 98.3867 90.0648 97.0298 90.0648Z" fill="#00539E"/>
<path d="M85.1103 93.9162C81.2633 95.4752 77.1888 96.2656 73 96.2656C55.2087 96.2656 40.7344 81.7913 40.7344 63.9999C40.7344 57.1423 42.8386 50.641 46.8281 45.1271C47.4819 45.4244 48.2067 45.5913 48.9704 45.5913C51.8351 45.5913 54.1658 43.2607 54.1658 40.396C54.1658 37.5313 51.8351 35.2007 48.9704 35.2007C46.1058 35.2007 43.7751 37.5313 43.7751 40.396C43.7751 41.5048 44.1254 42.5328 44.7196 43.3773C40.3209 49.3914 38 56.4994 38 63.9999C38 73.3488 41.6407 82.138 48.2512 88.7486C54.8619 95.3594 63.6512 98.9999 73 98.9999C77.5423 98.9999 81.9623 98.1422 86.1373 96.4505C86.837 96.167 87.1744 95.3698 86.8909 94.67C86.6072 93.97 85.8099 93.6328 85.1103 93.9162V93.9162ZM48.9704 37.9351C50.3274 37.9351 51.4314 39.0391 51.4314 40.396C51.4314 41.7529 50.3274 42.8569 48.9704 42.8569C47.6135 42.8569 46.5095 41.7529 46.5095 40.396C46.5095 39.0391 47.6135 37.9351 48.9704 37.9351Z" fill="#00539E"/>
<path d="M73 60.9607C70.1132 60.9607 67.7646 63.3092 67.7646 66.1959C67.7646 67.3928 68.1636 68.5282 68.8985 69.4505V73.5332C68.8985 75.7948 70.7384 77.6348 73 77.6348C75.2616 77.6348 77.1016 75.7948 77.1016 73.5332V69.4505C77.8364 68.5281 78.2354 67.3928 78.2354 66.1959C78.2354 63.3092 75.8868 60.9607 73 60.9607ZM74.7679 67.9648C74.5114 68.2213 74.3672 68.5691 74.3672 68.9318V73.5332C74.3672 74.2871 73.7539 74.9004 73 74.9004C72.2462 74.9004 71.6328 74.2871 71.6328 73.5332V68.9318C71.6328 68.5691 71.4886 68.2211 71.2321 67.9648C70.7593 67.4923 70.499 66.8642 70.499 66.1959C70.499 64.817 71.6209 63.6951 73 63.6951C74.3791 63.6951 75.501 64.817 75.501 66.1959C75.501 66.8642 75.2407 67.4924 74.7679 67.9648Z" fill="#00539E"/>
<path d="M85.5714 55.745V52.942C85.5714 46.0101 79.9319 40.3706 73 40.3706C66.0681 40.3706 60.4286 46.0101 60.4286 52.942V55.745C58.6585 56.4985 57.4141 58.2552 57.4141 60.2972V78.2983C57.4141 81.0249 59.6323 83.2431 62.3588 83.2431H83.6412C86.3677 83.2431 88.5859 81.0249 88.5859 78.2983V60.2972C88.5859 58.2552 87.3415 56.4985 85.5714 55.745ZM63.1629 52.942C63.1629 47.5179 67.5758 43.105 73 43.105C78.4242 43.105 82.837 47.5179 82.837 52.942V55.3525H79.9692V52.942C79.9692 49.0991 76.8429 45.9728 72.9999 45.9728C69.1568 45.9728 66.0305 49.0993 66.0305 52.942V55.3525H63.1627V52.942H63.1629ZM68.765 55.3525V52.942C68.765 50.6069 70.6648 48.7072 73 48.7072C75.3352 48.7072 77.235 50.6069 77.235 52.942V55.3525H68.765ZM85.8516 78.2983C85.8516 79.5171 84.8599 80.5088 83.6412 80.5088H62.3588C61.1401 80.5088 60.1484 79.5171 60.1484 78.2983V60.2972C60.1484 59.0784 61.1401 58.0869 62.3588 58.0869H83.6412C84.8599 58.0869 85.8516 59.0785 85.8516 60.2972V78.2983Z" fill="#00539E"/>
<path d="M97.0298 41.8353C97.3894 41.8353 97.7421 41.6904 97.9964 41.4361C98.2505 41.1818 98.397 40.8291 98.397 40.4695C98.397 40.1085 98.2507 39.7558 97.9964 39.5015C97.7421 39.2472 97.3892 39.1023 97.0298 39.1023C96.6702 39.1023 96.3175 39.2472 96.0632 39.5015C95.809 39.7558 95.6626 40.1085 95.6626 40.4695C95.6626 40.8291 95.8089 41.1804 96.0632 41.4361C96.3175 41.6904 96.6702 41.8353 97.0298 41.8353V41.8353Z" fill="#00539E"/>
<defs>
<filter id="filter0_d_2023_280" x="0" y="0" width="144" height="144" filterUnits="userSpaceOnUse" color-interpolation-filters="sRGB">
<feFlood flood-opacity="0" result="BackgroundImageFix"/>
<feColorMatrix in="SourceAlpha" type="matrix" values="0 0 0 0 0 0 0 0 0 0 0 0 0 0 0 0 0 0 127 0" result="hardAlpha"/>
<feMorphology radius="4" operator="erode" in="SourceAlpha" result="effect1_dropShadow_2023_280"/>
<feOffset dy="8"/>
<feGaussianBlur stdDeviation="8"/>
<feComposite in2="hardAlpha" operator="out"/>
<feColorMatrix type="matrix" values="0 0 0 0 0.0823529 0 0 0 0 0.0823529 0 0 0 0 0.0823529 0 0 0 0.1 0"/>
<feBlend mode="normal" in2="BackgroundImageFix" result="effect1_dropShadow_2023_280"/>
<feBlend mode="normal" in="SourceGraphic" in2="effect1_dropShadow_2023_280" result="shape"/>
</filter>
</defs>
</svg>
