<svg width="144" height="144" viewBox="0 0 144 144" fill="none" xmlns="http://www.w3.org/2000/svg">
<g filter="url(#filter0_d_2023_262)">
<rect x="12" y="4" width="120" height="120" rx="16" fill="#F5FAFF"/>
</g>
<path d="M62 53.8688L70.1248 62.7L84.5688 47" stroke="#00539E" stroke-width="1.5" stroke-linecap="round" stroke-linejoin="round"/>
<path d="M109.812 28.25H34.1875C32.9116 28.2514 31.6883 28.7589 30.7861 29.6611C29.8839 30.5633 29.3764 31.7866 29.375 33.0625V83.9375C29.3764 85.2134 29.8839 86.4367 30.7861 87.3389C31.6883 88.2411 32.9116 88.7486 34.1875 88.75H62.0725L61.2475 92.875H55.5C55.1353 92.875 54.7856 93.0199 54.5277 93.2777C54.2699 93.5356 54.125 93.8853 54.125 94.25V98.375C54.125 98.7397 54.2699 99.0894 54.5277 99.3473C54.7856 99.6051 55.1353 99.75 55.5 99.75H88.5C88.8647 99.75 89.2144 99.6051 89.4723 99.3473C89.7301 99.0894 89.875 98.7397 89.875 98.375V94.25C89.875 93.8853 89.7301 93.5356 89.4723 93.2777C89.2144 93.0199 88.8647 92.875 88.5 92.875H82.7525L81.9275 88.75H109.812C111.088 88.7486 112.312 88.2411 113.214 87.3389C114.116 86.4367 114.624 85.2134 114.625 83.9375V33.0625C114.624 31.7866 114.116 30.5633 113.214 29.6611C112.312 28.7589 111.088 28.2514 109.812 28.25ZM87.125 95.625V97H56.875V95.625H87.125ZM64.0525 92.875L64.8775 88.75H79.1225L79.9475 92.875H64.0525ZM111.875 83.9375C111.875 84.4844 111.657 85.0087 111.27 85.3954C110.884 85.7821 110.359 85.9995 109.812 86H34.1875C33.6406 85.9995 33.1163 85.7821 32.7296 85.3954C32.3429 85.0087 32.1255 84.4844 32.125 83.9375V80.5H111.875V83.9375ZM111.875 77.75H32.125V33.0625C32.1255 32.5156 32.3429 31.9913 32.7296 31.6046C33.1163 31.2179 33.6406 31.0005 34.1875 31H109.812C110.359 31.0005 110.884 31.2179 111.27 31.6046C111.657 31.9913 111.875 32.5156 111.875 33.0625V77.75Z" fill="#00539E"/>
<path d="M73.375 81.875H70.625C70.2603 81.875 69.9106 82.0199 69.6527 82.2777C69.3949 82.5356 69.25 82.8853 69.25 83.25C69.25 83.6147 69.3949 83.9644 69.6527 84.2223C69.9106 84.4801 70.2603 84.625 70.625 84.625H73.375C73.7397 84.625 74.0894 84.4801 74.3473 84.2223C74.6051 83.9644 74.75 83.6147 74.75 83.25C74.75 82.8853 74.6051 82.5356 74.3473 82.2777C74.0894 82.0199 73.7397 81.875 73.375 81.875Z" fill="#00539E"/>
<defs>
<filter id="filter0_d_2023_262" x="0" y="0" width="144" height="144" filterUnits="userSpaceOnUse" color-interpolation-filters="sRGB">
<feFlood flood-opacity="0" result="BackgroundImageFix"/>
<feColorMatrix in="SourceAlpha" type="matrix" values="0 0 0 0 0 0 0 0 0 0 0 0 0 0 0 0 0 0 127 0" result="hardAlpha"/>
<feMorphology radius="4" operator="erode" in="SourceAlpha" result="effect1_dropShadow_2023_262"/>
<feOffset dy="8"/>
<feGaussianBlur stdDeviation="8"/>
<feComposite in2="hardAlpha" operator="out"/>
<feColorMatrix type="matrix" values="0 0 0 0 0.0823529 0 0 0 0 0.0823529 0 0 0 0 0.0823529 0 0 0 0.1 0"/>
<feBlend mode="normal" in2="BackgroundImageFix" result="effect1_dropShadow_2023_262"/>
<feBlend mode="normal" in="SourceGraphic" in2="effect1_dropShadow_2023_262" result="shape"/>
</filter>
</defs>
</svg>
