<svg width="144" height="144" viewBox="0 0 144 144" fill="none" xmlns="http://www.w3.org/2000/svg">
<g filter="url(#filter0_d_2023_186)">
<rect x="12" y="4" width="120" height="120" rx="16" fill="#F5FAFF"/>
</g>
<path d="M64.5545 40.8964C57.915 34.2602 44.9222 33.4907 35.7255 33.4907C34.7731 33.4907 34 34.2636 34 35.2161C34 44.4128 34.7661 57.4056 41.4057 64.0453C44.2079 66.8475 48.5043 68.1002 52.7627 68.1002C57.3904 68.1002 61.9767 66.6197 64.5545 64.0419C69.4998 59.0966 70.4074 46.7457 64.5545 40.8964ZM62.1148 61.6054C58.4223 65.2944 48.1696 65.9259 43.8491 61.6054C38.4897 56.2462 37.5614 45.3584 37.4612 36.952C45.8677 37.0521 56.7555 37.9803 62.1147 43.3396C66.4354 47.6602 65.8038 57.9164 62.1148 61.6054Z" fill="#00539E"/>
<path d="M108.274 40.3167C99.0775 40.3167 86.0848 41.0828 79.445 47.7223C73.5923 53.5716 74.4998 65.9226 79.445 70.8678C82.0229 73.4423 86.6058 74.9227 91.2335 74.9227C95.4919 74.9227 99.7849 73.6734 102.594 70.8714C109.23 64.2318 110 51.239 110 42.0422C110 41.0897 109.227 40.3167 108.274 40.3167ZM100.147 68.4279C95.8268 72.7485 85.5705 72.1169 81.8815 68.4279C78.1925 64.7389 77.561 54.4827 81.8815 50.1622C87.2409 44.8028 98.1285 43.8746 106.535 43.7745C106.435 52.1844 105.507 63.0721 100.147 68.4279Z" fill="#00539E"/>
<path d="M95.8131 55.2523C95.4059 54.3861 94.2395 54.0894 93.3802 54.4896C80.1459 60.7117 73.6443 71.5614 70.6902 82.7148C67.0357 58.9999 56.4655 51.7702 51.9827 48.7024C51.4236 48.3193 50.9888 48.0398 50.7473 47.8017C50.0744 47.1288 48.9804 47.1288 48.3074 47.8017C47.6345 48.4746 47.6345 49.5686 48.3074 50.2416C48.6491 50.5798 49.2392 51.0043 50.0364 51.5494C55.0885 55.0039 68.5092 64.1868 68.5092 100.784C68.5092 101.736 69.2822 102.51 70.2347 102.51C71.1872 102.51 71.9602 101.736 71.9602 100.788C71.9602 86.0003 75.9323 66.506 94.8503 57.6163C94.8503 57.6129 95.1298 57.4817 95.1298 57.4817C95.9891 57.0744 96.2203 56.115 95.8131 55.2523Z" fill="#00539E"/>
<defs>
<filter id="filter0_d_2023_186" x="0" y="0" width="144" height="144" filterUnits="userSpaceOnUse" color-interpolation-filters="sRGB">
<feFlood flood-opacity="0" result="BackgroundImageFix"/>
<feColorMatrix in="SourceAlpha" type="matrix" values="0 0 0 0 0 0 0 0 0 0 0 0 0 0 0 0 0 0 127 0" result="hardAlpha"/>
<feMorphology radius="4" operator="erode" in="SourceAlpha" result="effect1_dropShadow_2023_186"/>
<feOffset dy="8"/>
<feGaussianBlur stdDeviation="8"/>
<feComposite in2="hardAlpha" operator="out"/>
<feColorMatrix type="matrix" values="0 0 0 0 0.0823529 0 0 0 0 0.0823529 0 0 0 0 0.0823529 0 0 0 0.1 0"/>
<feBlend mode="normal" in2="BackgroundImageFix" result="effect1_dropShadow_2023_186"/>
<feBlend mode="normal" in="SourceGraphic" in2="effect1_dropShadow_2023_186" result="shape"/>
</filter>
</defs>
</svg>
